<!-- icon666.com - MILLIONS vector ICONS FREE --><svg viewBox="-48 0 512 512.00065" xmlns="http://www.w3.org/2000/svg"><path d="m355.421875 374.457031c39.132813-39.402343 60.582031-91.6875 60.390625-147.21875-.164062-48.3125-17.265625-95.320312-48.15625-132.363281-28.589844-34.28125-67.617188-58.554688-110.65625-69l2.625-6.03125c.800781-1.839844.839844-3.921875.105469-5.789062-.734375-1.867188-2.179688-3.367188-4.019531-4.167969-14.390626-6.265625-29.640626-9.585938-45.332032-9.8671878-15.679687-.2773432-31.054687 2.4921878-45.660156 8.2460938-1.867188.734375-3.363281 2.179687-4.164062 4.019531-.800782 1.839844-.835938 3.921875-.101563 5.789063l2.683594 6.8125c-44.457031 9.777343-84.832031 34.164062-114.375 69.269531-31.609375 37.5625-48.929688 85.332031-48.761719 134.496094.191406 55.535156 21.996094 107.671875 61.398438 146.804687 25.847656 25.675781 57.238281 43.730469 91.453124 53.066407l-21.027343 36.421874h-6.492188c-12.511719 0-22.691406 10.175782-22.691406 22.6875v1.679688c0 12.511719 10.179687 22.6875 22.691406 22.6875h165.152344c12.511719 0 22.691406-10.175781 22.691406-22.6875v-1.679688c0-12.511718-10.179687-22.6875-22.691406-22.6875h-6.492187l-21.035157-36.429687c34.683594-9.460937 66.449219-27.867187 92.464844-54.058594zm-147.355469-38.75c-4.175781 0-7.5625 3.386719-7.5625 7.566407v47.675781c-38.257812-1.695313-74.148437-16.53125-102.457031-42.363281l89.527344-89.523438c3.890625 2.445312 8.257812 4.199219 12.929687 5.085938v48.871093c0 4.175781 3.386719 7.5625 7.5625 7.5625 4.179688 0 7.5625-3.386719 7.5625-7.5625v-49.105469c4.523438-1.003906 8.738282-2.824218 12.488282-5.300781l89.769531 89.773438c-27.246094 24.898437-62.945313 40.699219-102.253907 42.539062v-47.652343c-.003906-4.179688-3.386718-7.566407-7.566406-7.566407zm-149.320312-115.402343h-13.828125c1.71875-36.710938 15.75-71.804688 39.996093-99.589844.824219-.945313 1.65625-1.878906 2.5-2.800782l88.761719 88.761719c-2.683593 4.0625-4.59375 8.675781-5.53125 13.628907h-81.644531c-4.179688 0-7.566406 3.386718-7.566406 7.566406 0 4.175781 3.386718 7.5625 7.566406 7.5625h81.878906c1.066406 4.796875 3.050782 9.25 5.761719 13.164062l-89.300781 89.304688c-25.839844-28.273438-40.703125-64.171875-42.425782-102.46875h13.832032c4.175781 0 7.5625-3.386719 7.5625-7.5625 0-4.179688-3.386719-7.566406-7.5625-7.566406zm141.757812-100.546876v70.683594c-4.957031.9375-9.570312 2.851563-13.632812 5.535156l-88.746094-88.746093c22.863281-20.800781 51.179688-34.738281 81.675781-40.035157zm29.382813 107.535157c0 12.347656-10.042969 22.390625-22.390625 22.390625-12.34375 0-22.386719-10.042969-22.386719-22.390625 0-12.34375 10.042969-22.386719 22.386719-22.386719 12.347656 0 22.390625 10.042969 22.390625 22.386719zm98.679687 110.378906-89.753906-89.753906c2.476562-3.746094 4.296875-7.964844 5.300781-12.484375h126.792969c-1.78125 39.253906-17.507812 74.953125-42.339844 102.238281zm-84.21875-117.367187c-.882812-4.671876-2.636718-9.042969-5.085937-12.933594l89.285156-89.285156c1.105469 1.210937 2.199219 2.4375 3.269531 3.683593 23.648438 27.570313 37.382813 62.324219 39.082032 98.535157zm-15.546875-23.867188c-3.917969-2.710938-8.371093-4.695312-13.171875-5.761719v-69.851562l23.152344-53.132813c29.496094 5.65625 56.894531 19.480469 79.070312 39.699219zm-18.695312-181.292969c11.164062.199219 22.070312 2.160157 32.523437 5.839844l-34.015625 78.078125-31.214843-79.242188c10.578124-3.304687 21.546874-4.882812 32.707031-4.675781zm-194.976563 213.457031c-.15625-45.589843 15.898438-89.878906 45.207032-124.707031 27.921874-33.179687 66.269531-56.039062 108.417968-64.746093l5.394532 13.699218c-38.890626 7.464844-74.363282 27.816406-100.632813 57.921875-28.460937 32.617188-44.054687 74.445313-43.90625 117.78125.160156 47.628907 18.859375 92.339844 52.652344 125.898438 33.644531 33.417969 78.234375 51.796875 125.628906 51.796875.207031 0 .417969 0 .625-.003906 98.3125-.332032 178.023437-80.589844 177.691406-178.90625-.144531-42.335938-15.382812-83.324219-42.910156-115.414063-25.554687-29.796875-60.246094-50.347656-98.339844-58.417969l5.898438-13.53125c40.914062 9.328125 78.097656 32.109375 105.183593 64.585938 28.636719 34.34375 44.496094 77.929687 44.648438 122.730468.175781 51.492188-19.714844 99.972657-56 136.507813-36.289062 36.53125-84.632812 56.75-136.125 56.925781-.226562.003906-.449219.003906-.675781.003906-51.238281 0-99.457031-19.875-135.832031-56-36.535157-36.289062-56.75-84.628906-56.925782-136.125zm282.917969 259.03125v1.675782c0 4.171875-3.390625 7.5625-7.5625 7.5625h-165.152344c-4.171875 0-7.566406-3.390625-7.566406-7.5625v-1.675782c0-4.171874 3.394531-7.5625 7.566406-7.5625h9.5c.421875.074219.851563.125 1.285157.125h143.578124c.4375 0 .867188-.050781 1.289063-.125h9.5c4.171875 0 7.5625 3.394532 7.5625 7.5625zm-31.523437-22.6875h-117.234376l18.96875-32.851562c12.925782 2.480469 26.179688 3.757812 39.628907 3.757812h.730469c13.214843-.046874 26.234374-1.328124 38.9375-3.769531zm0 0" fill="#000000" style="fill: rgb(255, 102, 199);"></path></svg>